:SAMPLES-PER-SECOND 30
:FULLY-SPECIFIED
:DEGREES
381
root  -2.81214 40.8656 0.557508 -7.40216 -68.8997 6.86267
RightUpLeg  7.64557 -4.87404 -3.66158
RightLeg  -1.91029 -36.9381 2.10106
RightFoot  -2.63972 -0.378186 4.72727
RightToes  -3.13006e-008 1.75238e-005 3.56266e-009
Spine  -8.49177 -1.05541 -2.36011
Spine1  14.1933 -0.69525 0.226509
HEad  -20.1337 -1.1801 7.58329
LeftShoulder1  2.55451 -5.11145 -23.406
LeftArm  -56.6585 -28.0171 -33.5486
LeftForeArm  -0.664702 -45.821 -11.5829
LeftHand  -0.190684 0.327516 4.25952
RightShoulder  3.27132 6.74147 25.8859
RightArm  -7.28757 -37.7992 41.7661
RightForeArm  68.7523 79.0112 63.6426
RightHand  0.243568 4.59423 2.53863
LeftUpLeg  0.635472 -0.985965 -0.274717
LeftLeg  -0.214244 -5.35674 -0.487514
LeftFoot  0.484954 0.348402 -3.39343
LeftToes  4.76866e-008 1.46233e-008 1.30548e-009
382
root  -2.80513 40.8693 0.591458 -7.39066 -69.2897 6.8521
RightUpLeg  7.56601 -4.80996 -3.66109
RightLeg  -1.83454 -36.6125 2.00055
RightFoot  -2.58756 -0.383432 4.78597
RightToes  -3.13006e-008 1.75238e-005 3.56266e-009
Spine  -8.28259 -1.00173 -2.78988
Spine1  13.9048 -0.836211 0.982046
HEad  -20.6192 -1.1936 9.38164
LeftShoulder1  2.58791 -5.19402 -23.5133
LeftArm  -54.648 -23.5805 -37.5195
LeftForeArm  1.66541 -48.5378 -12.5959
LeftHand  -0.0800386 1.37908 2.23388
RightShoulder  3.19809 6.62729 25.5085
RightArm  -6.35852 -37.5476 41.4399
RightForeArm  67.4065 78.8886 62.4514
RightHand  0.22396 4.40758 2.3674
LeftUpLeg  0.715683 -0.946064 -0.265417
LeftLeg  -0.278108 -4.99839 -0.500424
LeftFoot  0.464287 0.341645 -3.32076
LeftToes  4.76866e-008 1.46233e-008 1.30548e-009
383
root  -2.79111 40.8718 0.624286 -7.43535 -69.6408 6.85426
RightUpLeg  7.5451 -4.80635 -3.70943
RightLeg  -1.79213 -36.2499 1.97371
RightFoot  -2.53539 -0.384961 4.77543
RightToes  -3.13006e-008 1.75238e-005 3.56266e-009
Spine  -7.87363 -0.976647 -3.25826
Spine1  13.3466 -1.03239 1.82304
HEad  -21.1929 -0.964678 10.8904
LeftShoulder1  2.63233 -5.29337 -23.6918
LeftArm  -51.4718 -17.8985 -41.3077
LeftForeArm  4.12478 -50.9906 -13.594
LeftHand  -0.159736 1.39362 4.39313
RightShoulder  3.2281 6.75159 25.4122
RightArm  -5.49048 -37.4507 40.7672
RightForeArm  66.4184 78.7798 61.2962
RightHand  0.213021 4.3229 2.26464
LeftUpLeg  0.820535 -0.894497 -0.263145
LeftLeg  -0.332199 -4.69436 -0.521506
LeftFoot  0.433078 0.334831 -3.24075
LeftToes  4.76866e-008 1.46233e-008 1.30548e-009
384
root  -2.8108 40.8813 0.672336 -7.90302 -70.4651 7.28725
RightUpLeg  7.50597 -4.83696 -3.89515
RightLeg  -1.67647 -35.3585 1.85076
RightFoot  -2.51186 -0.385877 4.74977
RightToes  -3.13006e-008 1.75238e-005 3.56266e-009
Spine  -7.9723 -0.824914 -3.62432
Spine1  13.4579 -1.03102 2.46095
HEad  -21.5419 -0.419464 11.9323
LeftShoulder1  2.75131 -5.58427 -24.0599
LeftArm  -47.9694 -11.4457 -44.1141
LeftForeArm  6.65707 -52.6154 -14.2455
LeftHand  -0.252491 0.391973 5.91323
RightShoulder  3.28398 6.83426 25.7143
RightArm  -4.74939 -37.1849 40.038
RightForeArm  66.1967 78.7334 60.6486
RightHand  0.260786 4.4021 2.80675
LeftUpLeg  1.27593 -0.834443 -0.324835
LeftLeg  -0.852513 -3.91023 -0.573751
LeftFoot  0.525133 0.336248 -3.29198
LeftToes  4.76866e-008 1.46233e-008 1.30548e-009
385
root  -2.82498 40.8924 0.737522 -7.87318 -71.475 7.28714
RightUpLeg  7.45955 -4.73371 -3.89685
RightLeg  -1.87907 -34.4625 1.92774
RightFoot  -2.42663 -0.382091 4.65293
RightToes  -3.13006e-008 1.75238e-005 3.56266e-009
Spine  -8.05745 -0.720517 -3.40384
Spine1  13.4031 -1.02412 2.6382
HEad  -21.4321 0.626668 12.5805
LeftShoulder1  2.93363 -5.9499 -24.8578
LeftArm  -43.0021 -4.47326 -45.1145
LeftForeArm  9.83397 -52.4152 -13.8769
LeftHand  -0.235339 0.713148 5.77198
RightShoulder  3.32803 6.90378 25.9346
RightArm  -4.28246 -36.7326 39.8403
RightForeArm  65.1796 78.5674 58.8047
RightHand  0.240407 4.57075 2.50875
LeftUpLeg  1.5328 -0.642503 -0.21842
LeftLeg  -1.12919 -3.1109 -0.653008
LeftFoot  0.50387 0.325292 -3.16334
LeftToes  4.76866e-008 1.46233e-008 1.30548e-009
386
root  -2.84237 40.9011 0.797651 -8.46419 -72.7149 7.70645
RightUpLeg  7.54998 -4.59918 -3.97092
RightLeg  -1.8891 -33.31 1.75057
RightFoot  -2.30665 -0.392301 4.7827
RightToes  -3.13006e-008 1.75238e-005 3.56266e-009
Spine  -8.30644 -0.650717 -3.047
Spine1  14.0901 -0.95942 2.44439
HEad  -21.4966 1.54819 13.0409
LeftShoulder1  3.05459 -6.0665 -25.7863
LeftArm  -39.0614 0.802677 -45.0196
LeftForeArm  20.7032 -48.7752 -11.2882
LeftHand  -0.211856 -1.29914 4.0586
RightShoulder  3.33937 6.90805 26.0346
RightArm  -4.47024 -35.5791 40.6164
RightForeArm  63.2312 78.2303 55.6026
RightHand  0.271641 4.62612 2.85334
LeftUpLeg  2.09908 -0.432444 -0.178405
LeftLeg  -1.49399 -2.11743 -0.79049
LeftFoot  0.482803 0.314506 -3.06588
LeftToes  4.76866e-008 1.46233e-008 1.30548e-009
387
root  -2.85861 40.9002 0.855993 -9.27557 -73.7129 8.44167
RightUpLeg  7.52105 -4.5661 -4.14758
RightLeg  -1.78064 -32.3177 1.52265
RightFoot  -2.28047 -0.391364 4.74878
RightToes  -3.13006e-008 1.75238e-005 3.56266e-009
Spine  -8.31521 -0.810226 -2.675
Spine1  14.2442 -1.05313 2.04992
HEad  -21.6596 3.02791 13.4029
LeftShoulder1  3.10448 -6.06567 -26.3262
LeftArm  -35.5402 4.40488 -44.4108
LeftForeArm  35.8625 -41.3972 -7.51163
LeftHand  -0.100334 -4.5826 1.3758
RightShoulder  3.37131 6.88748 26.4213
RightArm  -4.43452 -34.8146 41.2001
RightForeArm  62.1318 78.0507 54.2278
RightHand  0.235605 4.40272 2.50628
LeftUpLeg  2.4819 -0.411136 -0.3064
LeftLeg  -1.72707 -1.11278 -0.886818
LeftFoot  0.42913 0.297126 -2.9085
LeftToes  4.76866e-008 1.46233e-008 1.30548e-009
388
root  -2.87492 40.9006 0.919084 -9.57829 -74.5775 8.70456
RightUpLeg  7.56172 -4.53031 -4.22542
RightLeg  -1.94602 -31.4836 1.55061
RightFoot  -2.15354 -0.389984 4.71225
RightToes  -3.13006e-008 1.75238e-005 3.56266e-009
Spine  -8.4276 -0.97692 -2.32788
Spine1  14.3932 -1.25763 1.98066
HEad  -21.5164 3.6836 13.7975
LeftShoulder1  3.2389 -6.37373 -26.6936
LeftArm  -29.0049 6.07035 -43.4101
LeftForeArm  48.9842 -30.1705 -4.2882
LeftHand  -0.158142 -4.91971 2.02767
RightShoulder  3.4017 6.98244 26.4168
RightArm  -4.82981 -34.6253 42.0434
RightForeArm  62.2524 78.0565 54.2213
RightHand  0.198344 4.22355 2.11732
LeftUpLeg  2.57647 -0.445916 -0.366853
LeftLeg  -1.53884 -0.245156 -0.851925
LeftFoot  0.189567 0.298833 -2.97139
LeftToes  4.76866e-008 1.46233e-008 1.30548e-009
389
root  -2.93416 40.9017 0.965527 -10.1121 -75.4921 8.75121
RightUpLeg  8.20859 -4.42 -4.19256
RightLeg  -2.26767 -30.6676 1.59496
RightFoot  -2.06918 -0.396438 4.8011
RightToes  -3.13006e-008 1.75238e-005 3.56266e-009
Spine  -7.99436 -1.09825 -2.27588
Spine1  14.2654 -1.46281 2.12712
HEad  -21.2133 4.76876 14.0995
LeftShoulder1  3.34168 -6.69538 -26.6642
LeftArm  -24.7768 6.54802 -43.1209
LeftForeArm  66.2087 -16.5181 -3.16983
LeftHand  -0.292398 -5.74946 3.40798
RightShoulder  3.43741 7.08159 26.4515
RightArm  -5.08342 -34.7221 42.6743
RightForeArm  62.6535 78.0905 54.3618
RightHand  0.203204 4.35208 2.13621
LeftUpLeg  3.34589 -0.242941 -0.273183
LeftLeg  -1.60944 0.434101 -0.863831
LeftFoot  -3.02379e-007 0.283094 -2.85157
LeftToes  4.76866e-008 1.46233e-008 1.30548e-009
390
root  -2.97599 40.9028 1.00221 -10.6981 -76.8421 9.33562
RightUpLeg  7.99808 -4.31445 -4.19966
RightLeg  -2.03146 -29.4196 1.35884
RightFoot  -2.1035 -0.39461 4.76458
RightToes  -3.13006e-008 1.75238e-005 3.56266e-009
Spine  -8.10765 -1.34791 -2.48856
Spine1  14.4641 -1.76397 2.27256
HEad  -20.7616 5.97733 14.2651
LeftShoulder1  3.54875 -7.15379 -27.2166
LeftArm  -31.3092 8.57153 -43.797
LeftForeArm  92.2116 -7.02118 -2.17697
LeftHand  0.189535 -8.14529 -1.15063
RightShoulder  3.42091 6.94281 26.7353
RightArm  -4.10946 -33.7274 42.6013
RightForeArm  61.6135 77.8806 52.745
RightHand  0.239105 4.64462 2.47243
LeftUpLeg  3.69166 -0.086576 -0.204704
LeftLeg  -1.85526 1.6012 -0.976314
LeftFoot  -0.0924415 0.264864 -2.68489
LeftToes  4.76866e-008 1.46233e-008 1.30548e-009
